<mxfile host="app.diagrams.net" modified="2024-03-27T01:09:56.129Z" agent="Mozilla/5.0 (X11; Linux x86_64) AppleWebKit/537.36 (KHTML, like Gecko) Chrome/122.0.0.0 Safari/537.36" etag="6qe08mP4cYV4JjJG8lTo" version="23.1.7" type="github">
  <diagram name="Page-1" id="5f0bae14-7c28-e335-631c-24af17079c00">
    <mxGraphModel dx="810" dy="1297" grid="1" gridSize="10" guides="1" tooltips="1" connect="1" arrows="1" fold="1" page="1" pageScale="1" pageWidth="1100" pageHeight="850" background="none" math="0" shadow="0">
      <root>
        <mxCell id="0" />
        <mxCell id="1" parent="0" />
        <mxCell id="gnzBtqSWaNoDFZkvgC7s-6" value="Router" style="html=1;dropTarget=0;whiteSpace=wrap;" vertex="1" parent="1">
          <mxGeometry x="450" y="550" width="180" height="90" as="geometry" />
        </mxCell>
        <mxCell id="gnzBtqSWaNoDFZkvgC7s-7" value="" style="shape=module;jettyWidth=8;jettyHeight=4;" vertex="1" parent="gnzBtqSWaNoDFZkvgC7s-6">
          <mxGeometry x="1" width="20" height="20" relative="1" as="geometry">
            <mxPoint x="-27" y="7" as="offset" />
          </mxGeometry>
        </mxCell>
        <mxCell id="gnzBtqSWaNoDFZkvgC7s-8" value="Middleware" style="html=1;dropTarget=0;whiteSpace=wrap;" vertex="1" parent="1">
          <mxGeometry x="450" y="350" width="180" height="90" as="geometry" />
        </mxCell>
        <mxCell id="gnzBtqSWaNoDFZkvgC7s-9" value="" style="shape=module;jettyWidth=8;jettyHeight=4;" vertex="1" parent="gnzBtqSWaNoDFZkvgC7s-8">
          <mxGeometry x="1" width="20" height="20" relative="1" as="geometry">
            <mxPoint x="-27" y="7" as="offset" />
          </mxGeometry>
        </mxCell>
        <mxCell id="gnzBtqSWaNoDFZkvgC7s-10" value="Controller" style="html=1;dropTarget=0;whiteSpace=wrap;" vertex="1" parent="1">
          <mxGeometry x="450" y="150" width="180" height="90" as="geometry" />
        </mxCell>
        <mxCell id="gnzBtqSWaNoDFZkvgC7s-11" value="" style="shape=module;jettyWidth=8;jettyHeight=4;" vertex="1" parent="gnzBtqSWaNoDFZkvgC7s-10">
          <mxGeometry x="1" width="20" height="20" relative="1" as="geometry">
            <mxPoint x="-27" y="7" as="offset" />
          </mxGeometry>
        </mxCell>
        <mxCell id="gnzBtqSWaNoDFZkvgC7s-12" value="Bo" style="html=1;dropTarget=0;whiteSpace=wrap;" vertex="1" parent="1">
          <mxGeometry x="450" y="-50" width="180" height="90" as="geometry" />
        </mxCell>
        <mxCell id="gnzBtqSWaNoDFZkvgC7s-13" value="" style="shape=module;jettyWidth=8;jettyHeight=4;" vertex="1" parent="gnzBtqSWaNoDFZkvgC7s-12">
          <mxGeometry x="1" width="20" height="20" relative="1" as="geometry">
            <mxPoint x="-27" y="7" as="offset" />
          </mxGeometry>
        </mxCell>
        <mxCell id="gnzBtqSWaNoDFZkvgC7s-14" value="Model" style="html=1;dropTarget=0;whiteSpace=wrap;" vertex="1" parent="1">
          <mxGeometry x="740" y="-50" width="180" height="90" as="geometry" />
        </mxCell>
        <mxCell id="gnzBtqSWaNoDFZkvgC7s-15" value="" style="shape=module;jettyWidth=8;jettyHeight=4;" vertex="1" parent="gnzBtqSWaNoDFZkvgC7s-14">
          <mxGeometry x="1" width="20" height="20" relative="1" as="geometry">
            <mxPoint x="-27" y="7" as="offset" />
          </mxGeometry>
        </mxCell>
        <mxCell id="gnzBtqSWaNoDFZkvgC7s-16" value="View" style="html=1;dropTarget=0;whiteSpace=wrap;" vertex="1" parent="1">
          <mxGeometry x="150" y="-50" width="180" height="90" as="geometry" />
        </mxCell>
        <mxCell id="gnzBtqSWaNoDFZkvgC7s-17" value="" style="shape=module;jettyWidth=8;jettyHeight=4;" vertex="1" parent="gnzBtqSWaNoDFZkvgC7s-16">
          <mxGeometry x="1" width="20" height="20" relative="1" as="geometry">
            <mxPoint x="-27" y="7" as="offset" />
          </mxGeometry>
        </mxCell>
        <mxCell id="gnzBtqSWaNoDFZkvgC7s-22" value="" style="rounded=0;orthogonalLoop=1;jettySize=auto;html=1;endArrow=halfCircle;endFill=0;endSize=6;strokeWidth=1;sketch=0;fontSize=12;curved=1;" edge="1" parent="1">
          <mxGeometry relative="1" as="geometry">
            <mxPoint x="540" y="240" as="sourcePoint" />
            <mxPoint x="540" y="300" as="targetPoint" />
          </mxGeometry>
        </mxCell>
        <mxCell id="gnzBtqSWaNoDFZkvgC7s-23" value="" style="ellipse;whiteSpace=wrap;html=1;align=center;aspect=fixed;fillColor=none;strokeColor=none;resizable=0;perimeter=centerPerimeter;rotatable=0;allowArrows=0;points=[];outlineConnect=1;" vertex="1" parent="1">
          <mxGeometry x="530" y="240" width="10" height="10" as="geometry" />
        </mxCell>
        <mxCell id="gnzBtqSWaNoDFZkvgC7s-24" value="" style="rounded=0;orthogonalLoop=1;jettySize=auto;html=1;endArrow=halfCircle;endFill=0;endSize=6;strokeWidth=1;sketch=0;fontSize=12;curved=1;" edge="1" parent="1">
          <mxGeometry relative="1" as="geometry">
            <mxPoint x="540" y="40" as="sourcePoint" />
            <mxPoint x="540" y="100" as="targetPoint" />
          </mxGeometry>
        </mxCell>
        <mxCell id="gnzBtqSWaNoDFZkvgC7s-25" value="" style="rounded=0;orthogonalLoop=1;jettySize=auto;html=1;endArrow=halfCircle;endFill=0;endSize=6;strokeWidth=1;sketch=0;fontSize=12;curved=1;" edge="1" parent="1">
          <mxGeometry relative="1" as="geometry">
            <mxPoint x="250" y="40" as="sourcePoint" />
            <mxPoint x="250" y="100" as="targetPoint" />
          </mxGeometry>
        </mxCell>
        <mxCell id="gnzBtqSWaNoDFZkvgC7s-26" value="" style="rounded=0;orthogonalLoop=1;jettySize=auto;html=1;endArrow=halfCircle;endFill=0;endSize=6;strokeWidth=1;sketch=0;fontSize=12;curved=1;" edge="1" parent="1">
          <mxGeometry relative="1" as="geometry">
            <mxPoint x="780" y="40" as="sourcePoint" />
            <mxPoint x="780" y="100" as="targetPoint" />
          </mxGeometry>
        </mxCell>
        <mxCell id="gnzBtqSWaNoDFZkvgC7s-27" value="Use" style="endArrow=open;endSize=12;dashed=1;html=1;rounded=0;entryX=0.5;entryY=0;entryDx=0;entryDy=0;" edge="1" parent="1" target="gnzBtqSWaNoDFZkvgC7s-10">
          <mxGeometry width="160" relative="1" as="geometry">
            <mxPoint x="540" y="100" as="sourcePoint" />
            <mxPoint x="710" y="100" as="targetPoint" />
          </mxGeometry>
        </mxCell>
        <mxCell id="gnzBtqSWaNoDFZkvgC7s-28" value="Use" style="endArrow=open;endSize=12;dashed=1;html=1;rounded=0;entryX=0;entryY=0.75;entryDx=0;entryDy=0;" edge="1" parent="1" target="gnzBtqSWaNoDFZkvgC7s-14">
          <mxGeometry width="160" relative="1" as="geometry">
            <mxPoint x="550" y="100" as="sourcePoint" />
            <mxPoint x="710" y="100" as="targetPoint" />
          </mxGeometry>
        </mxCell>
        <mxCell id="gnzBtqSWaNoDFZkvgC7s-29" value="Use" style="endArrow=open;endSize=12;dashed=1;html=1;rounded=0;entryX=0.078;entryY=0.022;entryDx=0;entryDy=0;entryPerimeter=0;" edge="1" parent="1" target="gnzBtqSWaNoDFZkvgC7s-10">
          <mxGeometry width="160" relative="1" as="geometry">
            <mxPoint x="260" y="100" as="sourcePoint" />
            <mxPoint x="420" y="100" as="targetPoint" />
          </mxGeometry>
        </mxCell>
        <mxCell id="gnzBtqSWaNoDFZkvgC7s-30" value="Use" style="endArrow=open;endSize=12;dashed=1;html=1;rounded=0;entryX=0.5;entryY=0;entryDx=0;entryDy=0;" edge="1" parent="1" target="gnzBtqSWaNoDFZkvgC7s-8">
          <mxGeometry y="-10" width="160" relative="1" as="geometry">
            <mxPoint x="540" y="290" as="sourcePoint" />
            <mxPoint x="710" y="300" as="targetPoint" />
            <mxPoint as="offset" />
          </mxGeometry>
        </mxCell>
        <mxCell id="gnzBtqSWaNoDFZkvgC7s-31" value="Use" style="endArrow=open;endSize=12;dashed=1;html=1;rounded=0;entryX=0.5;entryY=0;entryDx=0;entryDy=0;" edge="1" parent="1">
          <mxGeometry y="-10" width="160" relative="1" as="geometry">
            <mxPoint x="540" y="490" as="sourcePoint" />
            <mxPoint x="539" y="550" as="targetPoint" />
            <mxPoint as="offset" />
          </mxGeometry>
        </mxCell>
        <mxCell id="gnzBtqSWaNoDFZkvgC7s-32" value="" style="rounded=0;orthogonalLoop=1;jettySize=auto;html=1;endArrow=halfCircle;endFill=0;endSize=6;strokeWidth=1;sketch=0;fontSize=12;curved=1;" edge="1" parent="1">
          <mxGeometry relative="1" as="geometry">
            <mxPoint x="539" y="440" as="sourcePoint" />
            <mxPoint x="539" y="500" as="targetPoint" />
          </mxGeometry>
        </mxCell>
      </root>
    </mxGraphModel>
  </diagram>
</mxfile>
